<svg width="56" height="40" viewBox="0 0 56 40" fill="none" xmlns="http://www.w3.org/2000/svg">
<path d="M15.5073 9.62668L26.0923 1.12098C27.1172 0.297419 28.6591 1.01114 28.6591 2.30913V36.7356C28.6591 38.0336 27.1172 38.7473 26.0923 37.9238L15.5073 29.4181H6.28144C2.8123 29.4181 0 26.6652 0 23.2693V15.7755C0 12.3796 2.8123 9.62668 6.28144 9.62668H15.5073Z" fill="#484947"/>
<path fill-rule="evenodd" clip-rule="evenodd" d="M40.3765 0.949339C40.7084 0.164993 41.627 -0.207472 42.4283 0.117414C46.4455 1.74627 49.8791 4.50464 52.2949 8.04371C54.7106 11.5828 56 15.7436 56 20C56 24.2564 54.7106 28.4172 52.2949 31.9563C49.8791 35.4954 46.4455 38.2537 42.4283 39.8826C41.627 40.2075 40.7084 39.835 40.3765 39.0507C40.0446 38.2663 40.4251 37.3671 41.2264 37.0422C44.6697 35.6461 47.6128 33.2817 49.6834 30.2483C51.7541 27.2148 52.8593 23.6483 52.8593 20C52.8593 16.3517 51.7541 12.7852 49.6834 9.75175C47.6128 6.71826 44.6697 4.35395 41.2264 2.95778C40.4251 2.6329 40.0446 1.73369 40.3765 0.949339ZM38.3718 9.70365C37.5706 9.37876 37.1901 8.47955 37.522 7.6952C37.8539 6.91086 38.7725 6.53839 39.5738 6.86328C42.228 7.93949 44.4966 9.76198 46.0927 12.1003C47.6889 14.4386 48.5408 17.1877 48.5408 20C48.5408 22.8123 47.6889 25.5614 46.0927 27.8997C44.4966 30.238 42.228 32.0605 39.5738 33.1367C38.7725 33.4616 37.8539 33.0891 37.522 32.3048C37.1901 31.5204 37.5706 30.6212 38.3718 30.2963C40.4522 29.4528 42.2303 28.0244 43.4813 26.1916C44.7323 24.3589 45.4001 22.2042 45.4001 20C45.4001 17.7958 44.7323 15.6411 43.4813 13.8083C42.2303 11.9756 40.4522 10.5472 38.3718 9.70365ZM34.6675 14.4411C34.9994 13.6567 35.918 13.2843 36.7192 13.6092C38.0105 14.1327 39.1142 15.0193 39.8906 16.1569C40.6671 17.2945 41.0816 18.6319 41.0816 20C41.0816 21.3681 40.6671 22.7055 39.8906 23.8431C39.1142 24.9806 38.0105 25.8673 36.7192 26.3908C35.918 26.7157 34.9994 26.3433 34.6675 25.5589C34.3356 24.7746 34.7161 23.8753 35.5173 23.5505C36.2347 23.2596 36.8478 22.767 37.2792 22.135C37.7106 21.5031 37.9409 20.7601 37.9409 20C37.9409 19.2399 37.7106 18.4969 37.2792 17.8649C36.8478 17.233 36.2347 16.7404 35.5173 16.4495C34.7161 16.1246 34.3356 15.2254 34.6675 14.4411Z" fill="#484947"/>
</svg>
